<svg xmlns="http://www.w3.org/2000/svg" viewBox="0 0 311.96 314.01"><defs><style>.cls-1,.cls-4,.cls-6,.cls-8{fill-rule:evenodd;}.cls-2{fill:#00361d;}.cls-3{fill:#6991cb;}.cls-4{fill:#00983c;}.cls-5{fill:#f6ec00;}.cls-6{fill:#006236;}.cls-7{fill:#fcca00;}.cls-8{fill:#fff;}</style></defs><title>Asset 1</title><g id="Layer_2" data-name="Layer 2"><g id="Layer_1-2" data-name="Layer 1"><path class="cls-1" d="M22.6,255.36a22.41,22.41,0,0,1,11.1,2.74,19.67,19.67,0,0,1,7.68,7.64,22.64,22.64,0,0,1,2.78,11.34,22.86,22.86,0,0,1-2.78,11.38,19.6,19.6,0,0,1-7.68,7.68,22.41,22.41,0,0,1-11.1,2.74,19.75,19.75,0,0,1-8.41-1.77A17.48,17.48,0,0,1,7.72,292v22H0V255.77H7.4v6.76a16.39,16.39,0,0,1,6.52-5.35,20.57,20.57,0,0,1,8.69-1.81ZM22,292.13a14.4,14.4,0,0,0,7.36-1.89,13.62,13.62,0,0,0,5.15-5.31,17.22,17.22,0,0,0,0-15.69A13.34,13.34,0,0,0,29.32,264,14.64,14.64,0,0,0,22,262.12,14.24,14.24,0,0,0,14.68,264a13.7,13.7,0,0,0-5.15,5.27,15.71,15.71,0,0,0-1.89,7.8,16.22,16.22,0,0,0,1.85,7.84,13.26,13.26,0,0,0,5.15,5.31A14.46,14.46,0,0,0,22,292.13Zm48-36.76q8.85,0,13.55,4.34t4.71,13V298.4H80.93v-5.63a12.2,12.2,0,0,1-5.51,4.55,21,21,0,0,1-8.49,1.57q-7.16,0-11.46-3.46a11.89,11.89,0,0,1-.2-18.14q4.1-3.42,13-3.42H80.52v-1.53q0-5-2.9-7.64T69.1,262a22.58,22.58,0,0,0-7.4,1.25,19.06,19.06,0,0,0-6.11,3.34l-3.22-5.79a23.35,23.35,0,0,1,7.88-4.06A33,33,0,0,1,70,255.36Zm-1.77,37.57a14.35,14.35,0,0,0,7.64-2,11.28,11.28,0,0,0,4.67-5.59v-6H68.62q-9.81,0-9.81,6.6a6,6,0,0,0,2.49,5.07,11.4,11.4,0,0,0,6.92,1.85Zm41.75-30a13.18,13.18,0,0,1,6-5.63,21.61,21.61,0,0,1,9.57-1.93v7.48a15,15,0,0,0-1.77-.08q-6.27,0-9.85,3.74t-3.58,10.66V298.4h-7.72V255.77H110v7.16Zm40.46-7.56q8.85,0,13.55,4.34t4.71,13V298.4h-7.32v-5.63a12.21,12.21,0,0,1-5.51,4.55,21,21,0,0,1-8.49,1.57q-7.16,0-11.46-3.46a11.89,11.89,0,0,1-.2-18.14q4.1-3.42,13-3.42H161v-1.53q0-5-2.9-7.64T149.54,262a22.58,22.58,0,0,0-7.4,1.25,19.07,19.07,0,0,0-6.11,3.34l-3.22-5.79a23.35,23.35,0,0,1,7.88-4.06,33,33,0,0,1,9.73-1.41Zm-1.77,37.57a14.35,14.35,0,0,0,7.64-2,11.28,11.28,0,0,0,4.67-5.59v-6H149.06q-9.81,0-9.81,6.6a6,6,0,0,0,2.49,5.07,11.4,11.4,0,0,0,6.92,1.85ZM183,238.71h7.72V298.4H183V238.71Zm22.44,0h7.72V298.4h-7.72V238.71Zm38,16.65q8.85,0,13.55,4.34t4.71,13V298.4h-7.32v-5.63a12.21,12.21,0,0,1-5.51,4.55,21,21,0,0,1-8.49,1.57q-7.16,0-11.46-3.46a11.89,11.89,0,0,1-.2-18.14q4.1-3.42,13-3.42H254v-1.53q0-5-2.9-7.64T242.54,262a22.58,22.58,0,0,0-7.4,1.25,19.07,19.07,0,0,0-6.11,3.34l-3.22-5.79a23.35,23.35,0,0,1,7.88-4.06,33,33,0,0,1,9.73-1.41Zm-1.77,37.57a14.35,14.35,0,0,0,7.64-2,11.28,11.28,0,0,0,4.67-5.59v-6H242.05q-9.81,0-9.81,6.6a6,6,0,0,0,2.49,5.07,11.4,11.4,0,0,0,6.92,1.85Zm61.54,5.47-12.31-16.33L278.41,298.4h-8.61l16.81-21.8-16-20.83h8.61L291,271.13l11.66-15.36h8.45L295,276.6l17,21.8Z"/><rect class="cls-2" x="66.86" y="15.56" width="179.23" height="179.23" rx="11.6" ry="11.6"/><rect class="cls-3" x="50.78" width="179.23" height="179.23" rx="11.6" ry="11.6"/><path class="cls-4" d="M229.67,170.43l-79.2-64.22L83.6,52,50.78,80.55v87.08a11.63,11.63,0,0,0,11.6,11.6h156A11.64,11.64,0,0,0,229.67,170.43Z"/><circle class="cls-5" cx="182.19" cy="49" r="11.97"/><path class="cls-6" d="M230,144.19l-63.8-53.6L150.47,106.2l79.2,64.22a11.52,11.52,0,0,0,.34-2.79Z"/><circle class="cls-7" cx="226.84" cy="166.53" r="41.35"/><path class="cls-1" d="M234.74,177.14a25.38,25.38,0,0,1,1,3,10.45,10.45,0,0,0,5.73,6.24,10.19,10.19,0,0,0,9.55-1.24,7.88,7.88,0,0,0,2-2c-9.36.49-9.43-2.29-12.38-11.72-.36-1.15-.81-1.78-.22-2.69l8.22-12.9c.47-.71.89-1.36,1.36-2.13a23,23,0,0,0,1.38-2.3h-9.49c-.33.68-.81,1.3-1.2,2a68.51,68.51,0,0,1-3.81,5.88,14.52,14.52,0,0,0-2.73-5.08c-4.76-5.49-11.53-5-17.76-2.16s-12.71,9.62-15,16.73C198.1,178.77,203.7,186.35,213,187a23.66,23.66,0,0,0,12.9-2.79c3.53-1.89,6.13-4.58,8.85-7.12Zm-12.65-23c6-1.34,7.79,5.67,8.87,10.33.75,3.22.87,2.78-.42,4.67-3.15,4.63-7.68,10.52-13,12.82-4.13,1.8-7.37.48-8.54-3.06C206.51,171.21,214.64,155.8,222.09,154.14Z"/><path class="cls-8" d="M103.49,81a9.19,9.19,0,0,1,4.74,1.31,14.57,14.57,0,0,1,26.64-6.5A11.9,11.9,0,1,1,138.6,99.3v.15H104.28q-.39,0-.79,0c-.27,0-.53,0-.79,0h0a9.23,9.23,0,0,1,.8-18.43Z"/></g></g></svg>